# xmcd CD database file
#
# Track frame offsets:
#	150
#	16165
#	34830
#	51407
#	70905
#	85285
#	99617
#	113407
#	130937
#	145102
#
# Disc length: 2203 seconds
#
# Revision: 0
# Processed by: cddbd v1.5.1PL0 Copyright (c) Steve Scherf et al.
# Submitted via: CDex 1.51
#
DISCID=8208990a
DTITLE=Wies-Texas - I Kumm Vom Country Net Los
DYEAR=1993
DGENRE=Country
TTITLE0=I kumm vom Country net los
TTITLE1=Auf der Straﬂ'n
TTITLE2=Halbzeit
TTITLE3=Zwischen Nacht und Tag
TTITLE4=Mountainbike
TTITLE5=Der Wilderer
TTITLE6=Regentanz
TTITLE7=Rock 93 (Der Traum is aus)
TTITLE8=D‰mmerung (Instrumental)
TTITLE9=Rattenf‰nger
EXTD=YEAR: 1993
EXTT0=
EXTT1=
EXTT2=
EXTT3=
EXTT4=
EXTT5=
EXTT6=
EXTT7=
EXTT8=
EXTT9=
PLAYORDER=
